<svg width="88" height="88" viewBox="0 0 88 88" fill="none" xmlns="http://www.w3.org/2000/svg">
<path fill-rule="evenodd" clip-rule="evenodd" d="M24.6767 39.7101V49.3534C26.1966 51.9737 28.3532 54.1681 30.9467 55.7334V39.7101H24.6767Z" fill="#AECBFA"/>
<path fill-rule="evenodd" clip-rule="evenodd" d="M36.2633 30.8367V58.4467C37.6128 58.619 38.9731 58.6925 40.3333 58.6667C41.5544 58.7431 42.779 58.7431 44 58.6667V30.8367H36.2633Z" fill="#669DF6"/>
<path fill-rule="evenodd" clip-rule="evenodd" d="M50.0133 43.4867V55.55C52.6207 53.8869 54.765 51.5913 56.2467 48.8767V43.4867H50.0133Z" fill="#AECBFA"/>
<path fill-rule="evenodd" clip-rule="evenodd" d="M65.0467 59.84L59.84 65.0467C59.6937 65.1901 59.5774 65.3612 59.498 65.5501C59.4187 65.739 59.3778 65.9418 59.3778 66.1467C59.3778 66.3516 59.4187 66.5544 59.498 66.7433C59.5774 66.9322 59.6937 67.1033 59.84 67.2467L72.82 80.2267C73.1082 80.5111 73.4968 80.6705 73.9017 80.6705C74.3065 80.6705 74.6951 80.5111 74.9833 80.2267L80.2267 74.9834C80.511 74.6952 80.6705 74.3066 80.6705 73.9017C80.6705 73.4968 80.511 73.1082 80.2267 72.82L67.2467 59.84C67.1033 59.6937 66.9321 59.5774 66.7433 59.4981C66.5544 59.4187 66.3516 59.3778 66.1467 59.3778C65.9418 59.3778 65.739 59.4187 65.5501 59.4981C65.3612 59.5774 65.1901 59.6937 65.0467 59.84Z" fill="#4285F4"/>
<path fill-rule="evenodd" clip-rule="evenodd" d="M40.3333 7.33337C33.8065 7.33337 27.4263 9.26879 21.9995 12.8949C16.5727 16.521 12.343 21.6749 9.8453 27.7048C7.34761 33.7348 6.6941 40.37 7.96741 46.7714C9.24073 53.1727 12.3837 59.0528 16.9988 63.6679C21.6139 68.283 27.494 71.426 33.8953 72.6993C40.2967 73.9726 46.9319 73.3191 52.9619 70.8214C58.9918 68.3237 64.1457 64.094 67.7718 58.6672C71.3979 53.2404 73.3333 46.8602 73.3333 40.3334C73.3333 35.9998 72.4798 31.7086 70.8214 27.7048C69.163 23.7011 66.7322 20.0632 63.6679 16.9988C60.6035 13.9345 56.9656 11.5038 52.9619 9.84535C48.9581 8.18694 44.667 7.33337 40.3333 7.33337ZM40.3333 64.8634C35.4921 64.8561 30.7617 63.4144 26.7394 60.7202C22.7171 58.0261 19.5834 54.2004 17.7341 49.7263C15.8848 45.2522 15.4029 40.3305 16.3491 35.5827C17.2954 30.8348 19.6274 26.4739 23.0506 23.0507C26.4739 19.6274 30.8348 17.2954 35.5826 16.3492C40.3304 15.4029 45.2522 15.8849 49.7263 17.7342C54.2003 19.5835 58.026 22.7171 60.7202 26.7394C63.4143 30.7617 64.8561 35.4922 64.8633 40.3334C64.8682 43.5561 64.237 46.748 63.0059 49.7263C61.7749 52.7046 59.9682 55.4107 57.6894 57.6895C55.4106 59.9683 52.7046 61.7749 49.7263 63.006C46.748 64.237 43.556 64.8682 40.3333 64.8634Z" fill="#669DF6"/>
</svg>
